<svg width="20" height="20" viewBox="0 0 20 20" fill="none" xmlns="http://www.w3.org/2000/svg">
<path d="M18.4863 9.86328L10.4414 1.82422C10.3835 1.76618 10.3147 1.72013 10.2389 1.68872C10.1632 1.6573 10.082 1.64113 9.99999 1.64113C9.91799 1.64113 9.8368 1.6573 9.76106 1.68872C9.68532 1.72013 9.61651 1.76618 9.55859 1.82422L1.51367 9.86328C1.2793 10.0977 1.14648 10.416 1.14648 10.748C1.14648 11.4375 1.70703 11.998 2.39648 11.998H3.24414V17.7344C3.24414 18.0801 3.52344 18.3594 3.86914 18.3594H8.74999V13.9844H10.9375V18.3594H16.1308C16.4766 18.3594 16.7558 18.0801 16.7558 17.7344V11.998H17.6035C17.9355 11.998 18.2539 11.8672 18.4883 11.6309C18.9746 11.1426 18.9746 10.3516 18.4863 9.86328Z" fill="white"/>
</svg>
