<svg width="20" height="20" viewBox="0 0 20 20" fill="none" xmlns="http://www.w3.org/2000/svg">
<path d="M17.3101 8.4625L16.1701 5.0425C16.0047 4.54457 15.6866 4.11142 15.261 3.80459C14.8354 3.49777 14.3239 3.33287 13.7992 3.33334H6.20091C5.67624 3.33287 5.16476 3.49777 4.73915 3.80459C4.31354 4.11142 3.99546 4.54457 3.83008 5.0425L2.69008 8.4625C2.38693 8.58935 2.12805 8.80298 1.94597 9.07654C1.76389 9.3501 1.66675 9.67139 1.66675 10V14.1667C1.66675 14.7817 2.00341 15.3133 2.50008 15.6025V17.5C2.50008 17.721 2.58788 17.933 2.74416 18.0893C2.90044 18.2455 3.1124 18.3333 3.33341 18.3333H4.16675C4.38776 18.3333 4.59972 18.2455 4.756 18.0893C4.91228 17.933 5.00008 17.721 5.00008 17.5V15.8333H15.0001V17.5C15.0001 17.721 15.0879 17.933 15.2442 18.0893C15.4004 18.2455 15.6124 18.3333 15.8334 18.3333H16.6667C16.8878 18.3333 17.0997 18.2455 17.256 18.0893C17.4123 17.933 17.5001 17.721 17.5001 17.5V15.6025C17.7529 15.4575 17.9631 15.2484 18.1094 14.9964C18.2557 14.7443 18.3329 14.4581 18.3334 14.1667V10C18.3334 9.67139 18.2363 9.3501 18.0542 9.07654C17.8721 8.80298 17.6132 8.58935 17.3101 8.4625ZM6.20091 5H13.7984C14.1576 5 14.4759 5.22834 14.5892 5.57L15.5109 8.33334H4.48925L5.41008 5.57C5.46537 5.404 5.57151 5.25961 5.71346 5.1573C5.8554 5.05499 6.02594 4.99996 6.20091 5ZM4.58341 13.3333C4.41921 13.3333 4.25662 13.3009 4.10493 13.238C3.95325 13.1751 3.81543 13.083 3.69936 12.9668C3.58329 12.8507 3.49123 12.7128 3.42844 12.561C3.36565 12.4093 3.33336 12.2467 3.33341 12.0825C3.33347 11.9183 3.36587 11.7557 3.42876 11.604C3.49165 11.4523 3.5838 11.3145 3.69995 11.1984C3.8161 11.0824 3.95397 10.9903 4.1057 10.9275C4.25743 10.8647 4.42004 10.8324 4.58425 10.8325C4.91588 10.8326 5.23388 10.9645 5.4683 11.199C5.70272 11.4336 5.83436 11.7517 5.83425 12.0833C5.83414 12.415 5.70229 12.733 5.46772 12.9674C5.23314 13.2018 4.91505 13.3334 4.58341 13.3333ZM15.4167 13.3333C15.2525 13.3333 15.09 13.3009 14.9383 13.238C14.7866 13.1751 14.6488 13.083 14.5327 12.9668C14.4166 12.8507 14.3246 12.7128 14.2618 12.561C14.199 12.4093 14.1667 12.2467 14.1667 12.0825C14.1668 11.9183 14.1992 11.7557 14.2621 11.604C14.325 11.4523 14.4171 11.3145 14.5333 11.1984C14.6494 11.0824 14.7873 10.9903 14.939 10.9275C15.0908 10.8647 15.2534 10.8324 15.4176 10.8325C15.7492 10.8326 16.0672 10.9645 16.3016 11.199C16.5361 11.4336 16.6677 11.7517 16.6676 12.0833C16.6675 12.415 16.5356 12.733 16.301 12.9674C16.0665 13.2018 15.7484 13.3334 15.4167 13.3333Z" fill="#38786A"/>
</svg>
