<svg width="18" height="12" viewBox="0 0 18 12" fill="none" xmlns="http://www.w3.org/2000/svg">
<path d="M17 4.99999H3.83L6.71 2.11999C6.89698 1.93301 7.00202 1.67942 7.00202 1.41499C7.00202 1.15056 6.89698 0.896967 6.71 0.70999C6.52302 0.523012 6.26943 0.417969 6.005 0.417969C5.74057 0.417969 5.48698 0.523012 5.3 0.70999L0.710001 5.29999C0.617297 5.3925 0.54375 5.50239 0.493568 5.62337C0.443387 5.74434 0.417557 5.87402 0.417557 6.00499C0.417557 6.13596 0.443387 6.26564 0.493568 6.38661C0.54375 6.50759 0.617297 6.61748 0.710001 6.70999L5.3 11.3C5.39258 11.3926 5.50249 11.466 5.62346 11.5161C5.74442 11.5662 5.87407 11.592 6.005 11.592C6.13593 11.592 6.26558 11.5662 6.38654 11.5161C6.50751 11.466 6.61742 11.3926 6.71 11.3C6.80258 11.2074 6.87602 11.0975 6.92613 10.9765C6.97623 10.8556 7.00202 10.7259 7.00202 10.595C7.00202 10.4641 6.97623 10.3344 6.92613 10.2134C6.87602 10.0925 6.80258 9.98257 6.71 9.88999L3.83 6.99999H17C17.55 6.99999 18 6.54999 18 5.99999C18 5.44999 17.55 4.99999 17 4.99999Z" fill="black"/>
</svg>
